<?xml version="1.0" encoding="utf-8"?>
<!-- Generator: Adobe Illustrator 23.0.3, SVG Export Plug-In . SVG Version: 6.00 Build 0)  -->
<svg version="1.1" id="Layer_1" xmlns="http://www.w3.org/2000/svg" xmlns:xlink="http://www.w3.org/1999/xlink" x="0px" y="0px"
	 viewBox="0 0 1920 266" style="enable-background:new 0 0 1920 266;" xml:space="preserve">
<style type="text/css">
	.st0{fill:#213C77;}
	.st1{fill:#F5A81C;}
	.st2{fill:#132A4E;}
	.st3{font-family:'TTCommons-Bold';}
	.st4{font-size:55.6025px;}
	.st5{font-family:'TTCommons-Light';}
</style>
<g>
	<g>
		<g>
			<path class="st0" d="M774,265.7c-6,0-11.8-2.7-15.8-7.7l-15.4-19.3c-3.6-4.5-8.9-7.1-14.7-7.1h-94.9c-14.3,0-26-11.6-26-26V70.3
				c0-14.3,11.6-26,26-26h135.3c14.3,0,26,11.6,26,26v175c0,8.8-5.3,16.3-13.6,19.2C778.6,265.3,776.3,265.7,774,265.7z
				 M728.2,205.5c13.8,0,26.6,6.2,35.1,16.9l5.1,6.4V70.3l-135.1,0.2l0.2,135.1L728.2,205.5z"/>
		</g>
		<g>
			<path class="st1" d="M716.5,191.3c-0.2,0-0.3,0-0.5,0c-5.1-0.2-9.9-2.8-12.7-7.1l-49.2-75.7c-4.7-7.3-2.7-17,4.6-21.7
				c7.3-4.7,17-2.7,21.7,4.6l36.9,56.7L821.9,6.7c5.1-7,15-8.4,21.9-3.3c7,5.1,8.4,15,3.3,21.9L729.1,185
				C726.2,189,721.5,191.3,716.5,191.3z"/>
		</g>
		<g>
			<polygon class="st2" points="794.5,117.5 768.4,152.8 768.4,131.9 794.5,96.6 			"/>
		</g>
	</g>
	<text transform="matrix(1 0 0 1 847.7593 102.3766)"><tspan x="0" y="0" class="st0 st3 st4">Forumul Național</tspan><tspan x="0" y="55.6" class="st0 st3 st4">al Tinerilor</tspan><tspan x="0" y="111.2" class="st0 st5 st4">în domeniul electoral</tspan></text>
</g>
</svg>
