<?xml version="1.0" encoding="utf-8"?>
<!-- Generator: Adobe Illustrator 23.0.3, SVG Export Plug-In . SVG Version: 6.00 Build 0)  -->
<svg version="1.1" id="Layer_1" xmlns="http://www.w3.org/2000/svg" xmlns:xlink="http://www.w3.org/1999/xlink" x="0px" y="0px"
	 viewBox="0 0 1920 266" style="enable-background:new 0 0 1920 266;" xml:space="preserve">
<style type="text/css">
	.st0{fill:#213C77;}
	.st1{fill:#F5A81C;}
	.st2{fill:#132A4E;}
</style>
<g>
	<g>
		<g>
			<path class="st0" d="M774,265.7c-6,0-11.8-2.7-15.8-7.7l-15.4-19.3c-3.6-4.5-8.9-7.1-14.7-7.1h-94.9c-14.3,0-26-11.6-26-26V70.3
				c0-14.3,11.6-26,26-26h135.3c14.3,0,26,11.6,26,26v175c0,8.8-5.3,16.3-13.6,19.2C778.6,265.3,776.3,265.7,774,265.7z
				 M728.2,205.5c13.8,0,26.6,6.2,35.1,16.9l5.1,6.4V70.3l-135.1,0.2l0.2,135.1L728.2,205.5z"/>
		</g>
		<g>
			<path class="st1" d="M716.5,191.3c-0.2,0-0.3,0-0.5,0c-5.1-0.2-9.9-2.8-12.7-7.1l-49.2-75.7c-4.7-7.3-2.7-17,4.6-21.7
				c7.3-4.7,17-2.7,21.7,4.6l36.9,56.7L821.9,6.7c5.1-7,15-8.4,21.9-3.3c7,5.1,8.4,15,3.3,21.9L729.1,185
				C726.2,189,721.5,191.3,716.5,191.3z"/>
		</g>
		<g>
			<polygon class="st2" points="794.5,117.5 768.4,152.8 768.4,131.9 794.5,96.6 			"/>
		</g>
	</g>
	<g>
		<path class="st0" d="M851.1,67.3h24.2v7.8h-16.1v7.2h13.1v7.8h-13.1v12.2h-8.1V67.3z"/>
		<path class="st0" d="M877,89.6c0-1.9,0.3-3.6,1-5.3c0.7-1.6,1.6-3,2.8-4.2c1.2-1.2,2.6-2.1,4.1-2.8c1.6-0.7,3.3-1,5.1-1
			c1.8,0,3.5,0.3,5.1,1c1.6,0.7,3,1.6,4.1,2.8c1.2,1.2,2.1,2.6,2.8,4.2c0.7,1.6,1,3.4,1,5.3s-0.3,3.6-1,5.3c-0.7,1.6-1.6,3-2.8,4.2
			c-1.2,1.2-2.6,2.1-4.1,2.8c-1.6,0.7-3.3,1-5.1,1c-1.8,0-3.5-0.3-5.1-1c-1.6-0.7-3-1.6-4.1-2.8c-1.2-1.2-2.1-2.6-2.8-4.2
			C877.3,93.2,877,91.5,877,89.6z M895.6,89.6c0-2-0.5-3.5-1.6-4.7c-1.1-1.1-2.4-1.7-3.9-1.7c-1.6,0-2.9,0.6-3.9,1.7
			c-1.1,1.1-1.6,2.7-1.6,4.7c0,2,0.5,3.5,1.6,4.7c1.1,1.1,2.4,1.7,3.9,1.7c1.6,0,2.9-0.6,3.9-1.7C895,93.1,895.6,91.6,895.6,89.6z"
			/>
		<path class="st0" d="M920.3,76.5c0.3,0,0.6,0,0.9,0.1c0.3,0,0.5,0.1,0.7,0.1c0.2,0,0.4,0.1,0.6,0.1v7.8c-0.2-0.1-0.5-0.2-0.8-0.3
			c-0.3-0.1-0.6-0.1-0.9-0.2c-0.3-0.1-0.7-0.1-1.1-0.1c-1.4,0-2.5,0.5-3.4,1.4c-0.9,0.9-1.3,2.2-1.3,3.9v13.1h-7.5V76.8h5.6l1.1,2.8
			c0.4-0.6,1-1.1,1.6-1.5c0.5-0.4,1.2-0.8,1.9-1.1C918.5,76.7,919.4,76.5,920.3,76.5z"/>
		<path class="st0" d="M936.4,102.7c-1.5,0-2.9-0.2-4.2-0.8c-1.3-0.5-2.3-1.2-3.3-2.2c-0.9-0.9-1.6-2.1-2.1-3.4
			c-0.5-1.3-0.8-2.8-0.8-4.5v-15h7.5v13.6c0,1.7,0.4,3,1.3,3.9c0.9,0.9,2,1.4,3.4,1.4c1.4,0,2.5-0.5,3.4-1.4
			c0.9-0.9,1.3-2.2,1.3-3.9V76.8h7.5v25.6h-5.6l-1.1-2.5c-0.6,0.5-1.3,1-2.1,1.4c-0.7,0.4-1.5,0.7-2.4,1
			C938.6,102.5,937.6,102.7,936.4,102.7z"/>
		<path class="st0" d="M969.2,76.5c1.3,0,2.4,0.2,3.3,0.5c0.9,0.4,1.7,0.7,2.3,1.1c0.7,0.5,1.2,1,1.6,1.7c0.6-0.6,1.3-1.2,2.1-1.7
			c0.7-0.4,1.5-0.8,2.4-1.1c0.9-0.4,1.9-0.5,3.1-0.5c2.8,0,5,0.9,6.7,2.7s2.5,4.4,2.5,7.9v15.3h-7.5V87.9c0-1.4-0.4-2.5-1.1-3.3
			s-1.6-1.2-2.5-1.2c-1,0-1.8,0.4-2.5,1.2s-1.1,1.9-1.1,3.3v14.5h-7.5V87.9c0-1.4-0.4-2.5-1.1-3.3s-1.6-1.2-2.5-1.2
			c-1,0-1.8,0.4-2.5,1.2s-1.1,1.9-1.1,3.3v14.5h-7.5V76.8h5.6l1.1,2.5c0.5-0.5,1.1-1,1.7-1.4c0.6-0.3,1.2-0.6,2-0.9
			C967.4,76.7,968.3,76.5,969.2,76.5z"/>
		<path class="st0" d="M1008.4,102.7c-1.5,0-2.9-0.2-4.2-0.8c-1.3-0.5-2.3-1.2-3.3-2.2s-1.6-2.1-2.1-3.4c-0.5-1.3-0.8-2.8-0.8-4.5
			v-15h7.5v13.6c0,1.7,0.4,3,1.3,3.9c0.9,0.9,2,1.4,3.4,1.4c1.4,0,2.5-0.5,3.4-1.4c0.9-0.9,1.3-2.2,1.3-3.9V76.8h7.5v25.6h-5.6
			l-1.1-2.5c-0.6,0.5-1.3,1-2.1,1.4c-0.7,0.4-1.5,0.7-2.4,1C1010.6,102.5,1009.6,102.7,1008.4,102.7z"/>
		<path class="st0" d="M1035.7,102.4h-7.5v-35h7.5V102.4z"/>
		<path class="st0" d="M1084.1,67.3v35h-7.2l-14.2-20.6v20.6h-8.1v-35h7.2l14.2,20.6V67.3H1084.1z"/>
		<path class="st0" d="M1101.3,76.2c1.5,0,2.9,0.3,4.2,0.8c1.3,0.5,2.4,1.3,3.4,2.2c0.9,0.9,1.7,2.1,2.2,3.4
			c0.5,1.3,0.8,2.7,0.8,4.2v15.6h-5.6l-1.1-2.5c-0.6,0.5-1.3,1-2.1,1.4c-0.7,0.4-1.5,0.7-2.4,1c-0.9,0.3-1.9,0.4-3,0.4
			c-2.8,0-4.9-0.7-6.4-2c-1.5-1.4-2.2-3.1-2.2-5.2c0-1.3,0.2-2.4,0.8-3.5c0.5-1.1,1.3-2,2.5-2.7c1.2-0.8,2.8-1.4,4.7-1.8
			c1.9-0.4,4.4-0.6,7.3-0.6c0-1.3-0.3-2.2-0.9-2.9c-0.6-0.7-1.4-1-2.4-1c-0.7,0-1.3,0.1-1.7,0.4c-0.4,0.3-0.8,0.6-1,0.9
			c-0.3,0.4-0.5,0.8-0.6,1.2l-7.5-0.6c0.2-1.3,0.6-2.4,1.2-3.5c0.6-1.1,1.3-2,2.2-2.7c0.9-0.8,2-1.4,3.3-1.8
			C1098.2,76.5,1099.6,76.2,1101.3,76.2z M1099.6,97.1c1.4,0,2.5-0.4,3.4-1.3c0.9-0.9,1.3-2,1.3-3.4v-1.1c-1.6,0-2.9,0.1-3.9,0.3
			c-1,0.2-1.8,0.4-2.4,0.7c-0.6,0.3-1,0.6-1.2,1.1c-0.2,0.4-0.3,0.9-0.3,1.3c0,0.7,0.3,1.3,0.8,1.8
			C1097.9,96.9,1098.7,97.1,1099.6,97.1z"/>
		<path class="st0" d="M1118.8,83.7h-3.9v-6.4h1.9c2,0,3.1-1,3.1-3.1v-3.6h6.4v6.1h5.3v7h-5.3v8.3c0,1.1,0.3,2,0.9,2.6
			c0.6,0.6,1.4,1,2.4,1c0.3,0,0.6,0,0.8,0c0.2,0,0.4,0,0.6-0.1c0.2,0,0.4-0.1,0.6-0.2v6.7c-0.3,0.1-0.6,0.2-1,0.3
			c-0.7,0.2-1.6,0.3-2.6,0.3c-2.9,0-5.2-0.8-6.8-2.4c-1.6-1.6-2.4-4-2.4-7V83.7z M1125.5,105.4c1.1,0,2,0.4,2.8,1.1
			c0.7,0.8,1.1,1.8,1.1,3c0,1.5-0.3,2.8-0.9,3.9c-0.6,1.1-1.2,2-1.9,2.8c-0.8,0.9-1.7,1.6-2.8,2.3l-1.1-1.7c0.4-0.3,0.8-0.6,1.2-0.9
			c0.3-0.3,0.6-0.7,0.9-1.1c0.3-0.5,0.5-1,0.7-1.5c-1.1,0-2-0.4-2.8-1.1c-0.7-0.7-1.1-1.7-1.1-2.8c0-1.1,0.4-2,1.1-2.8
			C1123.5,105.8,1124.4,105.4,1125.5,105.4z"/>
		<path class="st0" d="M1136.9,69.8c0-1.1,0.4-2.1,1.3-2.9c0.8-0.8,1.8-1.3,2.9-1.3s2.1,0.4,2.9,1.3c0.8,0.8,1.3,1.8,1.3,2.9
			c0,1.1-0.4,2.1-1.3,2.9s-1.8,1.3-2.9,1.3s-2.1-0.4-2.9-1.3S1136.9,71,1136.9,69.8z M1144.7,102.4h-7.5V76.8h7.5V102.4z"/>
		<path class="st0" d="M1149.7,89.6c0-1.9,0.3-3.6,1-5.3s1.6-3,2.8-4.2c1.2-1.2,2.6-2.1,4.1-2.8c1.6-0.7,3.3-1,5.1-1s3.5,0.3,5.1,1
			c1.6,0.7,3,1.6,4.1,2.8c1.2,1.2,2.1,2.6,2.8,4.2c0.7,1.6,1,3.4,1,5.3s-0.3,3.6-1,5.3c-0.7,1.6-1.6,3-2.8,4.2
			c-1.2,1.2-2.6,2.1-4.1,2.8c-1.6,0.7-3.3,1-5.1,1s-3.5-0.3-5.1-1c-1.6-0.7-3-1.6-4.1-2.8c-1.2-1.2-2.1-2.6-2.8-4.2
			S1149.7,91.5,1149.7,89.6z M1168.3,89.6c0-2-0.5-3.5-1.6-4.7c-1.1-1.1-2.4-1.7-3.9-1.7c-1.6,0-2.9,0.6-3.9,1.7
			c-1.1,1.1-1.6,2.7-1.6,4.7c0,2,0.5,3.5,1.6,4.7c1.1,1.1,2.4,1.7,3.9,1.7c1.6,0,2.9-0.6,3.9-1.7
			C1167.8,93.1,1168.3,91.6,1168.3,89.6z"/>
		<path class="st0" d="M1194.4,76.5c1.5,0,2.9,0.2,4.2,0.8c1.3,0.5,2.3,1.2,3.3,2.2c0.9,0.9,1.6,2.1,2.1,3.4
			c0.5,1.3,0.8,2.8,0.8,4.5v15h-7.5V88.8c0-1.7-0.4-3-1.3-3.9c-0.9-0.9-2-1.4-3.4-1.4c-1.4,0-2.5,0.5-3.4,1.4
			c-0.9,0.9-1.3,2.2-1.3,3.9v13.6h-7.5V76.8h5.6l1.1,2.5c0.6-0.5,1.3-1,2.1-1.4c0.7-0.3,1.5-0.6,2.4-0.9
			C1192.3,76.7,1193.3,76.5,1194.4,76.5z"/>
		<path class="st0" d="M1221.1,76.2c1.5,0,2.9,0.3,4.2,0.8c1.3,0.5,2.4,1.3,3.4,2.2c0.9,0.9,1.7,2.1,2.2,3.4
			c0.5,1.3,0.8,2.7,0.8,4.2v15.6h-5.6l-1.1-2.5c-0.6,0.5-1.3,1-2.1,1.4c-0.7,0.4-1.5,0.7-2.4,1c-0.9,0.3-1.9,0.4-3,0.4
			c-2.8,0-4.9-0.7-6.4-2c-1.5-1.4-2.2-3.1-2.2-5.2c0-1.3,0.2-2.4,0.8-3.5c0.5-1.1,1.3-2,2.5-2.7c1.2-0.8,2.8-1.4,4.7-1.8
			c1.9-0.4,4.4-0.6,7.3-0.6c0-1.3-0.3-2.2-0.9-2.9c-0.6-0.7-1.4-1-2.4-1c-0.7,0-1.3,0.1-1.7,0.4c-0.4,0.3-0.8,0.6-1,0.9
			c-0.3,0.4-0.5,0.8-0.6,1.2l-7.5-0.6c0.2-1.3,0.6-2.4,1.2-3.5c0.6-1.1,1.3-2,2.2-2.7c0.9-0.8,2-1.4,3.3-1.8
			C1218,76.5,1219.5,76.2,1221.1,76.2z M1219.5,97.1c1.4,0,2.5-0.4,3.4-1.3c0.9-0.9,1.3-2,1.3-3.4v-1.1c-1.6,0-2.9,0.1-3.9,0.3
			c-1,0.2-1.8,0.4-2.4,0.7c-0.6,0.3-1,0.6-1.2,1.1c-0.2,0.4-0.3,0.9-0.3,1.3c0,0.7,0.3,1.3,0.8,1.8
			C1217.7,96.9,1218.5,97.1,1219.5,97.1z"/>
		<path class="st0" d="M1244.5,102.4h-7.5v-35h7.5V102.4z"/>
		<path class="st0" d="M861.7,131.8c1.5,0,2.9,0.3,4.2,0.8c1.3,0.5,2.4,1.3,3.4,2.2s1.7,2.1,2.2,3.4c0.5,1.3,0.8,2.7,0.8,4.2V158
			h-5.6l-1.1-2.5c-0.6,0.5-1.3,1-2.1,1.4c-0.7,0.4-1.5,0.7-2.4,1c-0.9,0.3-1.9,0.4-3,0.4c-2.8,0-4.9-0.7-6.4-2
			c-1.5-1.4-2.2-3.1-2.2-5.2c0-1.3,0.3-2.4,0.8-3.5c0.5-1.1,1.3-2,2.5-2.7c1.2-0.8,2.8-1.4,4.7-1.8c1.9-0.4,4.4-0.6,7.3-0.6
			c0-1.3-0.3-2.2-0.9-2.9c-0.6-0.7-1.4-1-2.4-1c-0.7,0-1.3,0.1-1.7,0.4c-0.4,0.3-0.8,0.6-1,0.9c-0.3,0.4-0.5,0.8-0.6,1.2l-7.5-0.6
			c0.2-1.3,0.6-2.4,1.2-3.5c0.6-1.1,1.3-2,2.2-2.7c0.9-0.8,2-1.4,3.3-1.8C858.5,132.1,860,131.8,861.7,131.8z M860,152.7
			c1.4,0,2.5-0.4,3.4-1.3c0.9-0.9,1.3-2,1.3-3.4v-1.1c-1.6,0-2.9,0.1-3.9,0.2s-1.8,0.4-2.4,0.7c-0.6,0.3-1,0.6-1.2,1.1
			c-0.2,0.4-0.3,0.9-0.3,1.3c0,0.7,0.3,1.3,0.8,1.8C858.3,152.5,859,152.7,860,152.7z"/>
		<path class="st0" d="M885,158h-7.5v-35h7.5V158z"/>
		<path class="st0" d="M919.2,158h-8.1v-27.2h-10v-7.8h28.1v7.8h-10V158z"/>
		<path class="st0" d="M932.6,125.5c0-1.1,0.4-2.1,1.3-2.9c0.8-0.8,1.8-1.3,2.9-1.3c1.1,0,2.1,0.4,2.9,1.3c0.8,0.8,1.3,1.8,1.3,2.9
			c0,1.1-0.4,2.1-1.3,2.9c-0.8,0.8-1.8,1.3-2.9,1.3c-1.1,0-2.1-0.4-2.9-1.3S932.6,126.6,932.6,125.5z M940.3,158h-7.5v-25.6h7.5V158
			z"/>
		<path class="st0" d="M960.6,132.1c1.5,0,2.9,0.2,4.2,0.8c1.3,0.5,2.3,1.2,3.3,2.2c0.9,0.9,1.6,2.1,2.1,3.4
			c0.5,1.3,0.8,2.8,0.8,4.5v15h-7.5v-13.6c0-1.7-0.4-3-1.3-3.9c-0.9-0.9-2-1.4-3.4-1.4c-1.4,0-2.5,0.5-3.4,1.4
			c-0.9,0.9-1.3,2.2-1.3,3.9V158h-7.5v-25.6h5.6l1.1,2.5c0.6-0.5,1.3-1,2.1-1.4c0.7-0.3,1.5-0.6,2.4-0.9
			C958.5,132.3,959.5,132.1,960.6,132.1z"/>
		<path class="st0" d="M999.8,150.5c-0.3,1-0.8,2-1.5,3c-0.7,1-1.5,1.8-2.5,2.6c-1,0.8-2.2,1.4-3.5,1.8c-1.3,0.4-2.8,0.7-4.5,0.7
			c-1.7,0-3.4-0.3-4.9-1c-1.5-0.7-2.9-1.6-4.1-2.8c-1.2-1.2-2.1-2.6-2.8-4.2s-1-3.4-1-5.3c0-1.9,0.3-3.6,1-5.3s1.6-3,2.8-4.2
			c1.2-1.2,2.6-2.1,4.1-2.8c1.6-0.7,3.3-1,5.1-1c1.7,0,3.4,0.3,4.9,0.9c1.5,0.6,2.8,1.5,4,2.7c1.1,1.2,2,2.6,2.7,4.2
			c0.6,1.7,1,3.5,1,5.5c0,0.3,0,0.6-0.1,0.9s-0.1,0.5-0.1,0.8c0,0.3-0.1,0.6-0.1,0.8h-17.5c0.3,1,0.9,1.9,1.8,2.7
			c0.9,0.8,2.1,1.2,3.5,1.2c0.7,0,1.3-0.1,1.8-0.2c0.5-0.2,0.9-0.4,1.2-0.6c0.4-0.2,0.7-0.5,0.9-0.8L999.8,150.5z M988.2,138.8
			c-1.4,0-2.6,0.4-3.5,1.3c-0.9,0.8-1.5,1.8-1.8,2.9h10.6c-0.3-1.1-0.9-2.1-1.8-2.9C990.7,139.2,989.6,138.8,988.2,138.8z"/>
		<path class="st0" d="M1017.6,132.1c0.3,0,0.6,0,0.9,0.1c0.3,0,0.5,0.1,0.7,0.1c0.2,0,0.4,0.1,0.6,0.1v7.8
			c-0.2-0.1-0.5-0.2-0.8-0.3c-0.3-0.1-0.6-0.1-0.9-0.2c-0.3-0.1-0.7-0.1-1.1-0.1c-1.4,0-2.5,0.5-3.4,1.4c-0.9,0.9-1.3,2.2-1.3,3.9
			V158h-7.5v-25.6h5.6l1.1,2.8c0.4-0.6,1-1.1,1.6-1.5c0.5-0.4,1.2-0.8,1.9-1.1C1015.8,132.3,1016.7,132.1,1017.6,132.1z"/>
		<path class="st0" d="M1023.7,125.5c0-1.1,0.4-2.1,1.3-2.9c0.8-0.8,1.8-1.3,2.9-1.3s2.1,0.4,2.9,1.3c0.8,0.8,1.3,1.8,1.3,2.9
			c0,1.1-0.4,2.1-1.3,2.9s-1.8,1.3-2.9,1.3s-2.1-0.4-2.9-1.3S1023.7,126.6,1023.7,125.5z M1031.5,158h-7.5v-25.6h7.5V158z"/>
		<path class="st0" d="M1045.1,158h-7.5v-35h7.5V158z"/>
		<path class="st0" d="M1049.6,145.2c0-1.9,0.3-3.6,1-5.3s1.6-3,2.8-4.2c1.2-1.2,2.6-2.1,4.1-2.8c1.6-0.7,3.3-1,5.1-1s3.5,0.3,5.1,1
			c1.6,0.7,3,1.6,4.1,2.8c1.2,1.2,2.1,2.6,2.8,4.2c0.7,1.6,1,3.4,1,5.3c0,1.9-0.3,3.6-1,5.3c-0.7,1.6-1.6,3-2.8,4.2
			c-1.2,1.2-2.6,2.2-4.1,2.8c-1.6,0.7-3.3,1-5.1,1s-3.5-0.3-5.1-1c-1.6-0.7-3-1.6-4.1-2.8c-1.2-1.2-2.1-2.6-2.8-4.2
			S1049.6,147.1,1049.6,145.2z M1068.2,145.2c0-2-0.5-3.5-1.6-4.7c-1.1-1.1-2.4-1.7-3.9-1.7c-1.6,0-2.9,0.6-3.9,1.7
			c-1.1,1.1-1.6,2.7-1.6,4.7s0.5,3.5,1.6,4.7c1.1,1.1,2.4,1.7,3.9,1.7c1.6,0,2.9-0.6,3.9-1.7
			C1067.7,148.7,1068.2,147.2,1068.2,145.2z"/>
		<path class="st0" d="M1093,132.1c0.3,0,0.6,0,0.9,0.1c0.3,0,0.5,0.1,0.7,0.1c0.2,0,0.4,0.1,0.6,0.1v7.8c-0.2-0.1-0.5-0.2-0.8-0.3
			c-0.3-0.1-0.6-0.1-0.9-0.2c-0.3-0.1-0.7-0.1-1.1-0.1c-1.4,0-2.5,0.5-3.4,1.4c-0.9,0.9-1.3,2.2-1.3,3.9V158h-7.5v-25.6h5.6l1.1,2.8
			c0.4-0.6,1-1.1,1.6-1.5c0.5-0.4,1.2-0.8,1.9-1.1C1091.1,132.3,1092,132.1,1093,132.1z"/>
		<path class="st0" d="M854.2,178l5.3,6.4h-2.8l-3.6-4.5l-3.6,4.5h-2.8l5.3-6.4H854.2z M854.2,213.6h-2.5v-24.5h2.5V213.6z"/>
		<path class="st0" d="M872.5,188.8c1.4,0,2.7,0.2,3.9,0.7c1.2,0.5,2.2,1.2,3.1,2.1c0.9,0.9,1.5,2,2,3.3c0.5,1.3,0.7,2.7,0.7,4.2
			v14.4h-2.5v-14.4c0-1.1-0.2-2.1-0.6-3.1c-0.4-1-0.9-1.8-1.6-2.5c-0.7-0.7-1.5-1.3-2.4-1.6c-0.9-0.4-1.9-0.6-2.9-0.6
			c-1.1,0-2.1,0.2-3.1,0.6c-1,0.4-1.8,0.9-2.5,1.6c-0.7,0.7-1.2,1.5-1.6,2.5c-0.4,0.9-0.6,2-0.6,3.1v14.4h-2.5v-24.5h1.7l0.8,3.6
			h0.3c0.5-0.7,1-1.4,1.8-2c0.6-0.5,1.4-0.9,2.4-1.3S871.1,188.8,872.5,188.8z"/>
		<path class="st0" d="M899.7,201.3c0-1.8,0.3-3.5,0.9-5s1.4-2.8,2.4-4c1-1.1,2.2-2,3.6-2.6c1.4-0.6,2.9-0.9,4.5-0.9
			c1.4,0,2.6,0.2,3.6,0.7s1.9,1,2.6,1.5c0.8,0.7,1.5,1.4,2.1,2.2h0.3v-14.7h2.5v35h-1.7l-0.8-4.2h-0.3c-0.6,0.8-1.3,1.6-2.1,2.2
			c-0.7,0.6-1.6,1.1-2.6,1.5s-2.2,0.7-3.6,0.7c-1.6,0-3.1-0.3-4.5-0.9c-1.4-0.6-2.6-1.5-3.6-2.6c-1-1.1-1.8-2.4-2.4-4
			S899.7,203.1,899.7,201.3z M911.1,191.3c-1.2,0-2.3,0.2-3.4,0.7c-1.1,0.5-2,1.2-2.8,2.1s-1.5,1.9-1.9,3.2s-0.7,2.6-0.7,4
			c0,1.4,0.2,2.8,0.7,4s1.1,2.3,1.9,3.2c0.8,0.9,1.8,1.6,2.8,2.1c1.1,0.5,2.2,0.7,3.4,0.7c1.2,0,2.3-0.2,3.4-0.7
			c1.1-0.5,2-1.2,2.8-2.1c0.8-0.9,1.5-2,1.9-3.2c0.5-1.2,0.7-2.6,0.7-4s-0.2-2.8-0.7-4c-0.5-1.2-1.1-2.3-1.9-3.2s-1.8-1.6-2.8-2.1
			C913.5,191.6,912.3,191.3,911.1,191.3z"/>
		<path class="st0" d="M951.1,201.3c0,1.8-0.3,3.5-0.9,5c-0.6,1.5-1.4,2.9-2.4,4s-2.2,2-3.6,2.6c-1.4,0.6-2.9,0.9-4.5,0.9
			s-3.1-0.3-4.5-0.9c-1.4-0.6-2.6-1.5-3.6-2.6c-1-1.1-1.8-2.4-2.4-4s-0.9-3.2-0.9-5c0-1.8,0.3-3.5,0.9-5s1.4-2.8,2.4-4
			c1-1.1,2.2-2,3.6-2.6c1.4-0.6,2.9-0.9,4.5-0.9s3.1,0.3,4.5,0.9c1.4,0.6,2.6,1.5,3.6,2.6s1.8,2.4,2.4,4
			C950.8,197.9,951.1,199.5,951.1,201.3z M930.8,201.3c0,1.4,0.2,2.8,0.7,4s1.1,2.3,1.9,3.2c0.8,0.9,1.8,1.6,2.8,2.1
			c1.1,0.5,2.2,0.7,3.4,0.7c1.2,0,2.3-0.2,3.4-0.7c1.1-0.5,2-1.2,2.8-2.1c0.8-0.9,1.5-2,1.9-3.2c0.5-1.2,0.7-2.6,0.7-4
			s-0.2-2.8-0.7-4c-0.5-1.2-1.1-2.3-1.9-3.2s-1.8-1.6-2.8-2.1c-1.1-0.5-2.2-0.7-3.4-0.7c-1.2,0-2.3,0.2-3.4,0.7
			c-1.1,0.5-2,1.2-2.8,2.1s-1.5,1.9-1.9,3.2S930.8,199.9,930.8,201.3z"/>
		<path class="st0" d="M981.4,188.8c1.2,0,2.3,0.2,3.3,0.7c1,0.4,1.9,1.1,2.6,1.9c0.7,0.8,1.3,1.9,1.8,3.1s0.6,2.6,0.6,4.1v15h-2.5
			v-15c0-2.2-0.6-4-1.8-5.3c-1.2-1.3-2.6-1.9-4.3-1.9c-1.8,0-3.3,0.6-4.6,1.9s-1.8,3.1-1.8,5.3v15h-2.5v-15c0-2.2-0.6-4-1.8-5.3
			c-1.2-1.3-2.6-1.9-4.3-1.9c-1.8,0-3.3,0.6-4.5,1.9c-1.2,1.3-1.8,3.1-1.8,5.3v15h-2.5v-24.5h1.7l0.8,3.6h0.3c0.4-0.7,0.9-1.4,1.5-2
			c0.5-0.5,1.2-0.9,2-1.3s1.8-0.6,2.9-0.6c1.4,0,2.6,0.3,3.5,0.8c1,0.5,1.7,1.1,2.3,1.7c0.7,0.7,1.2,1.6,1.7,2.5
			c0.5-0.9,1-1.8,1.7-2.5c0.6-0.6,1.4-1.2,2.3-1.7C978.8,189.1,980,188.8,981.4,188.8z"/>
		<path class="st0" d="M1017.3,207.5c-0.3,0.8-0.8,1.5-1.4,2.3c-0.6,0.8-1.3,1.4-2.1,2c-0.8,0.6-1.8,1.1-2.9,1.5
			c-1.1,0.4-2.3,0.6-3.6,0.6c-1.7,0-3.2-0.3-4.6-0.9c-1.4-0.6-2.7-1.5-3.7-2.6s-1.9-2.4-2.4-4s-0.9-3.2-0.9-5c0-1.8,0.3-3.5,0.9-5
			s1.4-2.8,2.4-4c1-1.1,2.2-2,3.6-2.6c1.4-0.6,2.9-0.9,4.5-0.9c1.5,0,3,0.3,4.3,0.9c1.3,0.6,2.5,1.4,3.5,2.4s1.8,2.3,2.4,3.7
			s0.9,3,0.9,4.6c0,0.3,0,0.5-0.1,0.8s-0.1,0.4-0.1,0.6c0,0.2-0.1,0.4-0.1,0.5h-19.7c0.1,1.3,0.5,2.6,1,3.7s1.2,2,2,2.8
			c0.8,0.8,1.7,1.4,2.8,1.8c1,0.4,2.2,0.6,3.5,0.6c0.9,0,1.7-0.1,2.4-0.4s1.4-0.6,2-1c0.6-0.4,1.1-0.8,1.5-1.3
			c0.4-0.5,0.8-0.9,1-1.3H1017.3z M1007,191.3c-1.1,0-2.1,0.2-3.1,0.6c-1,0.4-1.9,1-2.6,1.8c-0.8,0.8-1.4,1.7-2,2.7
			s-0.9,2.2-1.1,3.5h17.5c-0.1-1.3-0.5-2.4-1-3.5c-0.5-1-1.1-2-1.9-2.7c-0.8-0.8-1.6-1.4-2.6-1.8
			C1009.1,191.6,1008.1,191.3,1007,191.3z"/>
		<path class="st0" d="M1034.8,188.8c1.4,0,2.7,0.2,3.9,0.7c1.2,0.5,2.2,1.2,3.1,2.1c0.9,0.9,1.5,2,2,3.3c0.5,1.3,0.7,2.7,0.7,4.2
			v14.4h-2.5v-14.4c0-1.1-0.2-2.1-0.6-3.1c-0.4-1-0.9-1.8-1.6-2.5c-0.7-0.7-1.5-1.3-2.4-1.6c-0.9-0.4-1.9-0.6-2.9-0.6
			c-1.1,0-2.1,0.2-3.1,0.6c-1,0.4-1.8,0.9-2.5,1.6c-0.7,0.7-1.2,1.5-1.6,2.5c-0.4,0.9-0.6,2-0.6,3.1v14.4h-2.5v-24.5h1.7l0.8,3.6
			h0.3c0.5-0.7,1-1.4,1.8-2c0.6-0.5,1.4-0.9,2.4-1.3C1032.2,189,1033.4,188.8,1034.8,188.8z"/>
		<path class="st0" d="M1051.7,181.3c0-0.6,0.2-1,0.6-1.4c0.4-0.4,0.8-0.6,1.4-0.6c0.6,0,1,0.2,1.4,0.6c0.4,0.4,0.5,0.8,0.5,1.4
			c0,0.6-0.2,1-0.5,1.4s-0.8,0.6-1.4,0.6c-0.6,0-1-0.2-1.4-0.6S1051.7,181.9,1051.7,181.3z M1054.8,213.6h-2.5v-24.5h2.5V213.6z"/>
		<path class="st0" d="M1072.9,213.9c-1.4,0-2.7-0.2-3.9-0.7c-1.2-0.5-2.2-1.2-3.1-2.1s-1.5-2-2-3.3s-0.8-2.7-0.8-4.2v-14.4h2.5
			v14.4c0,1.1,0.2,2.1,0.6,3.1c0.4,1,0.9,1.8,1.6,2.5c0.7,0.7,1.5,1.3,2.4,1.6c0.9,0.4,1.9,0.6,2.9,0.6c1.1,0,2.1-0.2,3.1-0.6
			c1-0.4,1.8-0.9,2.5-1.6c0.7-0.7,1.3-1.5,1.6-2.5c0.4-0.9,0.6-2,0.6-3.1v-14.4h2.5v24.5h-1.7l-0.8-3.6h-0.3c-0.5,0.7-1.1,1.4-1.8,2
			c-0.6,0.5-1.4,1-2.4,1.4S1074.3,213.9,1072.9,213.9z"/>
		<path class="st0" d="M1093.7,213.6h-2.5v-35h2.5V213.6z"/>
		<path class="st0" d="M1133.2,207.5c-0.3,0.8-0.8,1.5-1.4,2.3c-0.6,0.8-1.3,1.4-2.1,2c-0.8,0.6-1.8,1.1-2.9,1.5
			c-1.1,0.4-2.3,0.6-3.6,0.6c-1.7,0-3.2-0.3-4.6-0.9c-1.4-0.6-2.7-1.5-3.7-2.6s-1.9-2.4-2.4-4s-0.9-3.2-0.9-5c0-1.8,0.3-3.5,0.9-5
			s1.4-2.8,2.4-4c1-1.1,2.2-2,3.6-2.6c1.4-0.6,2.9-0.9,4.5-0.9c1.5,0,3,0.3,4.3,0.9c1.3,0.6,2.5,1.4,3.5,2.4s1.8,2.3,2.4,3.7
			s0.9,3,0.9,4.6c0,0.3,0,0.5-0.1,0.8s-0.1,0.4-0.1,0.6c0,0.2-0.1,0.4-0.1,0.5H1114c0.1,1.3,0.5,2.6,1,3.7s1.2,2,2,2.8
			c0.8,0.8,1.7,1.4,2.8,1.8c1,0.4,2.2,0.6,3.5,0.6c0.9,0,1.7-0.1,2.4-0.4s1.4-0.6,2-1c0.6-0.4,1.1-0.8,1.5-1.3
			c0.4-0.5,0.8-0.9,1-1.3H1133.2z M1122.9,191.3c-1.1,0-2.1,0.2-3.1,0.6c-1,0.4-1.9,1-2.6,1.8c-0.8,0.8-1.4,1.7-2,2.7
			s-0.9,2.2-1.1,3.5h17.5c-0.1-1.3-0.5-2.4-1-3.5c-0.5-1-1.1-2-1.9-2.7c-0.8-0.8-1.6-1.4-2.6-1.8
			C1125,191.6,1124,191.3,1122.9,191.3z"/>
		<path class="st0" d="M1142.6,213.6h-2.5v-35h2.5V213.6z"/>
		<path class="st0" d="M1170.4,207.5c-0.3,0.8-0.8,1.5-1.4,2.3c-0.6,0.8-1.3,1.4-2.1,2c-0.8,0.6-1.8,1.1-2.9,1.5
			c-1.1,0.4-2.3,0.6-3.6,0.6c-1.7,0-3.2-0.3-4.6-0.9c-1.4-0.6-2.7-1.5-3.7-2.6s-1.9-2.4-2.4-4s-0.9-3.2-0.9-5c0-1.8,0.3-3.5,0.9-5
			s1.4-2.8,2.4-4c1-1.1,2.2-2,3.6-2.6c1.4-0.6,2.9-0.9,4.5-0.9c1.5,0,3,0.3,4.3,0.9c1.3,0.6,2.5,1.4,3.5,2.4s1.8,2.3,2.4,3.7
			s0.9,3,0.9,4.6c0,0.3,0,0.5-0.1,0.8s-0.1,0.4-0.1,0.6c0,0.2-0.1,0.4-0.1,0.5h-19.7c0.1,1.3,0.5,2.6,1,3.7s1.2,2,2,2.8
			c0.8,0.8,1.7,1.4,2.8,1.8c1,0.4,2.2,0.6,3.5,0.6c0.9,0,1.7-0.1,2.4-0.4s1.4-0.6,2-1c0.6-0.4,1.1-0.8,1.5-1.3
			c0.4-0.5,0.8-0.9,1-1.3H1170.4z M1160.1,191.3c-1.1,0-2.1,0.2-3.1,0.6c-1,0.4-1.9,1-2.6,1.8c-0.8,0.8-1.4,1.7-2,2.7
			s-0.9,2.2-1.1,3.5h17.5c-0.1-1.3-0.5-2.4-1-3.5c-0.5-1-1.1-2-1.9-2.7c-0.8-0.8-1.6-1.4-2.6-1.8
			C1162.2,191.6,1161.2,191.3,1160.1,191.3z"/>
		<path class="st0" d="M1187,191.3c-1.2,0-2.3,0.2-3.4,0.7c-1.1,0.5-2,1.2-2.8,2.1s-1.5,1.9-1.9,3.2s-0.7,2.6-0.7,4
			c0,1.4,0.2,2.8,0.7,4s1.1,2.3,1.9,3.2c0.8,0.9,1.8,1.6,2.8,2.1s2.2,0.7,3.4,0.7c2,0,3.6-0.6,5-1.8c1.3-1.2,2.3-2.6,2.8-4.3h2.8
			c-0.7,2.5-2,4.6-3.7,6.2s-4.1,2.4-6.8,2.4c-1.6,0-3.1-0.3-4.5-0.9c-1.4-0.6-2.6-1.5-3.6-2.6c-1-1.1-1.8-2.4-2.4-4s-0.9-3.2-0.9-5
			c0-1.8,0.3-3.5,0.9-5s1.4-2.8,2.4-4c1-1.1,2.2-2,3.6-2.6c1.4-0.6,2.9-0.9,4.5-0.9c2.8,0,5.1,0.8,6.8,2.4c1.8,1.6,3,3.7,3.7,6.2
			h-2.8c-0.6-1.7-1.5-3.1-2.8-4.3C1190.7,191.9,1189,191.3,1187,191.3z"/>
		<path class="st0" d="M1205.9,191.6h-4.8v-2.5h2.2c1.8,0,2.8-0.9,2.8-2.8v-4.4h2.2v7.2h6.1v2.5h-6.1v15c0,1.7,0.4,2.9,1.3,3.6
			c0.9,0.7,1.9,1.1,3.2,1.1c0.5,0,0.9,0,1.2-0.1c0.1,0,0.3-0.1,0.4-0.2v2.2c-0.2,0.1-0.4,0.2-0.6,0.3c-0.5,0.2-1,0.3-1.6,0.3
			c-1.8,0-3.3-0.6-4.5-1.9c-1.2-1.3-1.8-3.1-1.8-5.3V191.6z"/>
		<path class="st0" d="M1241.8,201.3c0,1.8-0.3,3.5-0.9,5c-0.6,1.5-1.4,2.9-2.4,4s-2.2,2-3.6,2.6c-1.4,0.6-2.9,0.9-4.5,0.9
			s-3.1-0.3-4.5-0.9c-1.4-0.6-2.6-1.5-3.6-2.6c-1-1.1-1.8-2.4-2.4-4s-0.9-3.2-0.9-5c0-1.8,0.3-3.5,0.9-5s1.4-2.8,2.4-4
			c1-1.1,2.2-2,3.6-2.6c1.4-0.6,2.9-0.9,4.5-0.9s3.1,0.3,4.5,0.9c1.4,0.6,2.6,1.5,3.6,2.6s1.8,2.4,2.4,4
			C1241.5,197.9,1241.8,199.5,1241.8,201.3z M1221.5,201.3c0,1.4,0.2,2.8,0.7,4s1.1,2.3,1.9,3.2c0.8,0.9,1.8,1.6,2.8,2.1
			s2.2,0.7,3.4,0.7s2.3-0.2,3.4-0.7c1.1-0.5,2-1.2,2.8-2.1c0.8-0.9,1.5-2,1.9-3.2s0.7-2.6,0.7-4s-0.2-2.8-0.7-4s-1.1-2.3-1.9-3.2
			s-1.8-1.6-2.8-2.1c-1.1-0.5-2.2-0.7-3.4-0.7c-1.2,0-2.3,0.2-3.4,0.7c-1.1,0.5-2,1.2-2.8,2.1s-1.5,1.9-1.9,3.2
			S1221.5,199.9,1221.5,201.3z"/>
		<path class="st0" d="M1259.6,188.8v2.5h-1.4c-2.4,0-4.3,0.7-5.7,2.1c-1.4,1.4-2.1,3.4-2.1,5.9v14.2h-2.5v-24.5h1.7l0.8,3.6h0.3
			c0.5-0.7,1-1.4,1.8-2c0.6-0.5,1.4-0.9,2.4-1.3s2.2-0.6,3.6-0.6H1259.6z"/>
		<path class="st0" d="M1273.2,188.8c1.3,0,2.6,0.2,3.7,0.6c1.1,0.4,2,1,2.8,1.8c0.8,0.8,1.4,1.7,1.8,2.7c0.4,1,0.6,2.2,0.6,3.5
			v16.1h-1.7l-0.8-3.6h-0.3c-0.5,0.7-1.1,1.4-1.8,2c-0.6,0.5-1.4,1-2.4,1.4c-1,0.4-2.2,0.6-3.5,0.6c-2.8,0-4.9-0.7-6.4-2
			c-1.5-1.3-2.2-3-2.2-5c0-1.1,0.2-2.1,0.7-3.1s1.3-1.8,2.3-2.6s2.5-1.3,4.2-1.7c1.7-0.4,3.9-0.6,6.4-0.6h3.1v-1.4
			c0-1.8-0.6-3.3-1.7-4.4c-1.1-1.1-2.7-1.7-4.7-1.7s-3.5,0.4-4.5,1.3c-1,0.9-1.8,1.9-2.2,3.2h-2.5c0.1-0.9,0.5-1.8,1-2.6
			c0.5-0.9,1.1-1.6,1.9-2.2c0.8-0.6,1.7-1.1,2.7-1.5C1270.7,189,1271.9,188.8,1273.2,188.8z M1271.9,211.4c2.4,0,4.3-0.7,5.7-2.1
			c1.4-1.4,2.1-3.3,2.1-5.7v-2.2h-3.1c-2.2,0-3.9,0.1-5.4,0.4c-1.4,0.3-2.6,0.7-3.4,1.2s-1.5,1.1-1.8,1.8c-0.4,0.7-0.5,1.4-0.5,2.2
			c0,1.1,0.5,2.1,1.6,3.1C1268.1,210.9,1269.7,211.4,1271.9,211.4z"/>
		<path class="st0" d="M1292.1,213.6h-2.5v-35h2.5V213.6z"/>
	</g>
</g>
</svg>
